<svg width="352" height="216" viewBox="0 0 352 216" fill="none" xmlns="http://www.w3.org/2000/svg">
<g clip-path="url(#clip0)">
<path d="M94.1377 54.1096H50.3792V54.7319H94.1377V54.1096Z" fill="#F2F2F2"/>
<path d="M62.8817 48.5091H62.2565V54.2652H62.8817V48.5091Z" fill="#F2F2F2"/>
<path d="M81.9478 48.5091H81.3227V54.2652H81.9478V48.5091Z" fill="#F2F2F2"/>
<path d="M79.1348 22.9957H35.3763V23.6179H79.1348V22.9957Z" fill="#F2F2F2"/>
<path d="M67.2575 23.4624H66.6324V29.2185H67.2575V23.4624Z" fill="#F2F2F2"/>
<path d="M48.1913 23.4624H47.5662V29.2185H48.1913V23.4624Z" fill="#F2F2F2"/>
<path d="M148.523 66.5552H104.765V67.1775H148.523V66.5552Z" fill="#F2F2F2"/>
<path d="M117.267 60.9547H116.642V66.7108H117.267V60.9547Z" fill="#F2F2F2"/>
<path d="M136.333 60.9547H135.708V66.7108H136.333V60.9547Z" fill="#F2F2F2"/>
<path d="M133.52 35.4412H89.7618V36.0635H133.52V35.4412Z" fill="#F2F2F2"/>
<path d="M121.643 35.9079H121.018V41.664H121.643V35.9079Z" fill="#F2F2F2"/>
<path d="M102.577 35.9079H101.952V41.664H102.577V35.9079Z" fill="#F2F2F2"/>
<path d="M131.332 172.343H87.5739V172.965H131.332V172.343Z" fill="#F2F2F2"/>
<path d="M100.076 166.742H99.4512V172.498H100.076V166.742Z" fill="#F2F2F2"/>
<path d="M119.143 166.742H118.517V172.498H119.143V166.742Z" fill="#F2F2F2"/>
<path d="M116.33 141.229H72.571V141.851H116.33V141.229Z" fill="#F2F2F2"/>
<path d="M104.452 141.695H103.827V147.452H104.452V141.695Z" fill="#F2F2F2"/>
<path d="M85.386 141.695H84.7609V147.452H85.386V141.695Z" fill="#F2F2F2"/>
<path d="M111.328 105.136H67.57V105.759H111.328V105.136Z" fill="#F2F2F2"/>
<path d="M80.0725 99.5359H79.4474V105.292H80.0725V99.5359Z" fill="#F2F2F2"/>
<path d="M99.1387 99.5359H98.5135V105.292H99.1387V99.5359Z" fill="#F2F2F2"/>
<path d="M96.3256 74.0225H52.5671V74.6448H96.3256V74.0225Z" fill="#F2F2F2"/>
<path d="M84.4483 74.4893H83.8232V80.2453H84.4483V74.4893Z" fill="#F2F2F2"/>
<path d="M65.3821 74.4893H64.757V80.2453H65.3821V74.4893Z" fill="#F2F2F2"/>
<path d="M79.7599 152.43H36.0015V153.052H79.7599V152.43Z" fill="#F2F2F2"/>
<path d="M48.5038 146.829H47.8787V152.585H48.5038V146.829Z" fill="#F2F2F2"/>
<path d="M67.57 146.829H66.9449V152.585H67.57V146.829Z" fill="#F2F2F2"/>
<path d="M64.757 121.316H20.9986V121.938H64.757V121.316Z" fill="#F2F2F2"/>
<path d="M52.8797 121.782H52.2546V127.539H52.8797V121.782Z" fill="#F2F2F2"/>
<path d="M33.8135 121.782H33.1884V127.539H33.8135V121.782Z" fill="#F2F2F2"/>
<path d="M297.615 54.1096H253.856V54.7319H297.615V54.1096Z" fill="#F2F2F2"/>
<path d="M266.358 48.5091H265.733V54.2652H266.358V48.5091Z" fill="#F2F2F2"/>
<path d="M285.425 48.5091H284.8V54.2652H285.425V48.5091Z" fill="#F2F2F2"/>
<path d="M282.612 22.9957H238.853V23.6179H282.612V22.9957Z" fill="#F2F2F2"/>
<path d="M270.734 23.4624H270.109V29.2185H270.734V23.4624Z" fill="#F2F2F2"/>
<path d="M251.668 23.4624H251.043V29.2185H251.668V23.4624Z" fill="#F2F2F2"/>
<path d="M352 66.5552H308.242V67.1775H352V66.5552Z" fill="#F2F2F2"/>
<path d="M320.744 60.9547H320.119V66.7108H320.744V60.9547Z" fill="#F2F2F2"/>
<path d="M339.81 60.9547H339.185V66.7108H339.81V60.9547Z" fill="#F2F2F2"/>
<path d="M336.997 35.4412H293.239V36.0635H336.997V35.4412Z" fill="#F2F2F2"/>
<path d="M325.12 35.9079H324.495V41.664H325.12V35.9079Z" fill="#F2F2F2"/>
<path d="M306.054 35.9079H305.428V41.664H306.054V35.9079Z" fill="#F2F2F2"/>
<path d="M334.809 172.343H291.051V172.965H334.809V172.343Z" fill="#F2F2F2"/>
<path d="M303.553 166.742H302.928V172.498H303.553V166.742Z" fill="#F2F2F2"/>
<path d="M322.619 166.742H321.994V172.498H322.619V166.742Z" fill="#F2F2F2"/>
<path d="M319.806 141.229H276.048V141.851H319.806V141.229Z" fill="#F2F2F2"/>
<path d="M307.929 141.695H307.304V147.452H307.929V141.695Z" fill="#F2F2F2"/>
<path d="M288.863 141.695H288.238V147.452H288.863V141.695Z" fill="#F2F2F2"/>
<path d="M314.805 105.136H271.047V105.759H314.805V105.136Z" fill="#F2F2F2"/>
<path d="M283.549 99.5359H282.924V105.292H283.549V99.5359Z" fill="#F2F2F2"/>
<path d="M302.615 99.5359H301.99V105.292H302.615V99.5359Z" fill="#F2F2F2"/>
<path d="M299.802 74.0225H256.044V74.6448H299.802V74.0225Z" fill="#F2F2F2"/>
<path d="M287.925 74.4893H287.3V80.2453H287.925V74.4893Z" fill="#F2F2F2"/>
<path d="M268.859 74.4893H268.234V80.2453H268.859V74.4893Z" fill="#F2F2F2"/>
<path d="M283.237 152.43H239.478V153.052H283.237V152.43Z" fill="#F2F2F2"/>
<path d="M251.981 146.829H251.356V152.585H251.981V146.829Z" fill="#F2F2F2"/>
<path d="M271.047 146.829H270.422V152.585H271.047V146.829Z" fill="#F2F2F2"/>
<path d="M268.234 121.316H224.475V121.938H268.234V121.316Z" fill="#F2F2F2"/>
<path d="M256.357 121.782H255.731V127.539H256.357V121.782Z" fill="#F2F2F2"/>
<path d="M237.29 121.782H236.665V127.539H237.29V121.782Z" fill="#F2F2F2"/>
<path d="M174.232 0H113.439V85.8745H174.232V0Z" fill="#3F3D56"/>
<path d="M252.216 102.987H191.423V188.862H252.216V102.987Z" fill="#3F3D56"/>
<path d="M252.216 0H191.423V85.8745H252.216V0Z" fill="#3F3D56"/>
<path d="M174.232 102.987H113.439V188.862H174.232V102.987Z" fill="#3F3D56"/>
<path d="M330.981 188.591H29.8259V189.288H330.981V188.591Z" fill="#2F2E41"/>
<path d="M35.6112 183.883H32.1731V212.819C32.1731 212.819 54.3649 219.976 75.9315 212.819V183.883H35.6112Z" fill="#3F3D56"/>
<path d="M53.7397 187.306C65.6507 187.306 75.3064 185.843 75.3064 184.039C75.3064 182.235 65.6507 180.772 53.7397 180.772C41.8288 180.772 32.1731 182.235 32.1731 184.039C32.1731 185.843 41.8288 187.306 53.7397 187.306Z" fill="#3F3D56"/>
<path opacity="0.1" d="M53.7397 187.306C65.6507 187.306 75.3064 185.843 75.3064 184.039C75.3064 182.235 65.6507 180.772 53.7397 180.772C41.8288 180.772 32.1731 182.235 32.1731 184.039C32.1731 185.843 41.8288 187.306 53.7397 187.306Z" fill="black"/>
<path d="M78.8096 149.312C73.369 169.332 54.7339 181.731 54.7339 181.731C54.7339 181.731 44.9196 161.671 50.3602 141.65C55.8008 121.63 74.4359 109.231 74.4359 109.231C74.4359 109.231 84.2501 129.291 78.8096 149.312Z" fill="#3F3D56"/>
<path d="M29.3156 149.312C34.7562 169.332 53.3913 181.731 53.3913 181.731C53.3913 181.731 63.2056 161.671 57.765 141.65C52.3245 121.63 33.6893 109.231 33.6893 109.231C33.6893 109.231 23.8751 129.291 29.3156 149.312Z" fill="#6C63FF"/>
<path d="M37.3102 145.009C52.2392 159.476 54.0626 181.714 54.0626 181.714C54.0626 181.714 31.6814 180.498 16.7524 166.031C1.82347 151.564 0 129.326 0 129.326C0 129.326 22.3812 130.542 37.3102 145.009Z" fill="#3F3D56"/>
<path d="M70.8151 145.009C55.8861 159.476 54.0626 181.714 54.0626 181.714C54.0626 181.714 76.4438 180.498 91.3728 166.031C106.302 151.564 108.125 129.326 108.125 129.326C108.125 129.326 85.744 130.542 70.8151 145.009Z" fill="#3F3D56"/>
<path d="M54.0523 116.055C57.85 116.055 60.9286 112.99 60.9286 109.21C60.9286 105.43 57.85 102.365 54.0523 102.365C50.2546 102.365 47.176 105.43 47.176 109.21C47.176 112.99 50.2546 116.055 54.0523 116.055Z" fill="#6C63FF"/>
<path d="M137.506 46.9821C138.024 46.9821 138.444 46.5642 138.444 46.0487C138.444 45.5331 138.024 45.1152 137.506 45.1152C136.988 45.1152 136.568 45.5331 136.568 46.0487C136.568 46.5642 136.988 46.9821 137.506 46.9821Z" fill="white"/>
<path d="M133.13 34.8476C139.172 34.8476 144.07 29.9721 144.07 23.9578C144.07 17.9434 139.172 13.0679 133.13 13.0679C127.088 13.0679 122.19 17.9434 122.19 23.9578C122.19 29.9721 127.088 34.8476 133.13 34.8476Z" fill="white"/>
<path d="M150.633 39.2036C150.806 39.2036 150.946 39.0643 150.946 38.8924C150.946 38.7206 150.806 38.5813 150.633 38.5813C150.461 38.5813 150.321 38.7206 150.321 38.8924C150.321 39.0643 150.461 39.2036 150.633 39.2036Z" fill="white"/>
<path d="M205.644 54.7605C205.817 54.7605 205.957 54.6212 205.957 54.4494C205.957 54.2775 205.817 54.1382 205.644 54.1382C205.471 54.1382 205.332 54.2775 205.332 54.4494C205.332 54.6212 205.471 54.7605 205.644 54.7605Z" fill="white"/>
<path d="M202.206 147.791C202.379 147.791 202.518 147.652 202.518 147.48C202.518 147.308 202.379 147.169 202.206 147.169C202.033 147.169 201.893 147.308 201.893 147.48C201.893 147.652 202.033 147.791 202.206 147.791Z" fill="white"/>
<path d="M136.256 169.26C136.428 169.26 136.568 169.121 136.568 168.949C136.568 168.777 136.428 168.638 136.256 168.638C136.083 168.638 135.943 168.777 135.943 168.949C135.943 169.121 136.083 169.26 136.256 169.26Z" fill="white"/>
<path d="M228.461 65.6505C228.634 65.6505 228.774 65.5112 228.774 65.3393C228.774 65.1675 228.634 65.0282 228.461 65.0282C228.288 65.0282 228.148 65.1675 228.148 65.3393C228.148 65.5112 228.288 65.6505 228.461 65.6505Z" fill="white"/>
<path d="M225.335 39.5147C225.508 39.5147 225.648 39.3754 225.648 39.2036C225.648 39.0318 225.508 38.8925 225.335 38.8925C225.163 38.8925 225.023 39.0318 225.023 39.2036C225.023 39.3754 225.163 39.5147 225.335 39.5147Z" fill="white"/>
<path d="M214.708 123.522C214.881 123.522 215.021 123.383 215.021 123.211C215.021 123.039 214.881 122.9 214.708 122.9C214.536 122.9 214.396 123.039 214.396 123.211C214.396 123.383 214.536 123.522 214.708 123.522Z" fill="white"/>
<path d="M197.83 76.8514C198.003 76.8514 198.143 76.7122 198.143 76.5403C198.143 76.3685 198.003 76.2292 197.83 76.2292C197.657 76.2292 197.518 76.3685 197.518 76.5403C197.518 76.7122 197.657 76.8514 197.83 76.8514Z" fill="white"/>
<path d="M200.331 32.9808C200.503 32.9808 200.643 32.8415 200.643 32.6697C200.643 32.4978 200.503 32.3585 200.331 32.3585C200.158 32.3585 200.018 32.4978 200.018 32.6697C200.018 32.8415 200.158 32.9808 200.331 32.9808Z" fill="white"/>
<path d="M228.774 15.2458C228.946 15.2458 229.086 15.1065 229.086 14.9347C229.086 14.7628 228.946 14.6235 228.774 14.6235C228.601 14.6235 228.461 14.7628 228.461 14.9347C228.461 15.1065 228.601 15.2458 228.774 15.2458Z" fill="white"/>
<path d="M136.881 141.257C137.053 141.257 137.193 141.118 137.193 140.946C137.193 140.774 137.053 140.635 136.881 140.635C136.708 140.635 136.568 140.774 136.568 140.946C136.568 141.118 136.708 141.257 136.881 141.257Z" fill="white"/>
<path d="M163.761 164.904C163.934 164.904 164.074 164.765 164.074 164.593C164.074 164.421 163.934 164.282 163.761 164.282C163.588 164.282 163.448 164.421 163.448 164.593C163.448 164.765 163.588 164.904 163.761 164.904Z" fill="white"/>
<path d="M129.379 117.922C129.552 117.922 129.692 117.783 129.692 117.611C129.692 117.439 129.552 117.3 129.379 117.3C129.207 117.3 129.067 117.439 129.067 117.611C129.067 117.783 129.207 117.922 129.379 117.922Z" fill="white"/>
<path d="M137.193 76.8514C137.366 76.8514 137.506 76.7122 137.506 76.5403C137.506 76.3685 137.366 76.2292 137.193 76.2292C137.021 76.2292 136.881 76.3685 136.881 76.5403C136.881 76.7122 137.021 76.8514 137.193 76.8514Z" fill="white"/>
<path opacity="0.1" d="M137.193 76.8514L174.232 60.9615V65.1682L137.193 76.8514Z" fill="white"/>
<path opacity="0.1" d="M252.216 27.5078V40.5663L191.423 59.745V53.5875L252.216 27.5078Z" fill="white"/>
<path opacity="0.1" d="M155.334 122.894L174.232 112.53V113.97C163.664 119.064 155.703 122.726 155.334 122.894Z" fill="white"/>
<path opacity="0.1" d="M191.635 102.987H196.402C194.748 103.837 193.089 104.68 191.423 105.517V103.105L191.635 102.987Z" fill="white"/>
<path opacity="0.1" d="M229.086 82.452C228.942 83.2765 227.852 84.4464 226.036 85.8745H222.844L229.086 82.452Z" fill="white"/>
<path opacity="0.1" d="M252.216 138.258V140.455C235.987 148.516 221.163 155.333 220.659 155.564L252.216 138.258Z" fill="white"/>
<path d="M215.646 141.316C215.646 140.699 215.468 140.094 215.134 139.575C214.799 139.055 214.322 138.641 213.759 138.383L213.859 137.112H206.875L207.688 145.358H213.21L213.283 144.424C213.963 144.233 214.562 143.826 214.988 143.264C215.415 142.703 215.646 142.019 215.646 141.316V141.316ZM213.322 143.933L213.709 139.023C214.044 139.353 214.303 139.751 214.468 140.19C214.632 140.63 214.698 141.1 214.662 141.567C214.625 142.035 214.486 142.489 214.254 142.897C214.023 143.306 213.705 143.659 213.322 143.933Z" fill="#6C63FF"/>
<path d="M208.116 134.604C208.116 134.604 216.374 140.476 213.622 142.825C210.869 145.173 205.364 135.779 205.364 135.779L208.116 134.604Z" fill="#FFB9B9"/>
<path d="M169.973 143.608C169.973 143.608 171.546 163.18 171.939 165.92C172.332 168.66 172.726 193.321 173.512 196.061C174.299 198.801 175.085 205.456 175.085 205.456H179.804C179.804 205.456 179.411 193.321 180.59 188.624C181.77 183.926 181.377 171.009 181.377 171.009C181.377 171.009 183.736 147.914 182.556 144.782C181.377 141.65 169.973 143.608 169.973 143.608Z" fill="#FFB9B9"/>
<path d="M176.265 204.281C176.265 204.281 174.298 205.456 174.298 206.239C174.298 207.022 174.692 208.979 174.298 209.762C173.905 210.545 171.153 213.676 172.726 214.459C174.298 215.242 181.377 214.459 181.377 214.459C181.377 214.459 180.983 208.979 180.59 208.587C180.197 208.196 180.983 204.281 180.983 204.281H176.265Z" fill="#2F2E41"/>
<path d="M200.033 143.128C200.033 143.128 200.533 162.756 200.431 165.522C200.329 168.288 202.538 192.854 202.045 195.661C201.551 198.469 201.471 205.169 201.471 205.169L196.778 205.662C196.778 205.662 195.89 193.553 194.221 189.005C192.553 184.457 191.582 171.569 191.582 171.569C191.582 171.569 186.8 148.848 187.643 145.611C188.486 142.373 200.033 143.128 200.033 143.128Z" fill="#FFB9B9"/>
<path d="M200.174 204.124C200.174 204.124 202.253 205.086 202.336 205.865C202.418 206.644 202.234 208.631 202.707 209.369C203.181 210.106 206.248 212.933 204.767 213.876C203.285 214.819 196.163 214.78 196.163 214.78C196.163 214.78 195.977 209.288 196.326 208.858C196.676 208.428 195.481 204.617 195.481 204.617L200.174 204.124Z" fill="#2F2E41"/>
<path d="M175.478 114.249C175.478 114.249 172.332 114.641 171.153 121.295C169.973 127.95 165.647 144.782 169.186 145.956C172.726 147.131 183.343 149.479 183.736 148.696C184.129 147.913 184.916 145.956 184.916 145.956C184.916 145.956 183.736 149.479 185.309 149.479C186.882 149.479 202.218 147.131 201.825 145.956C201.431 144.782 200.645 136.17 200.645 136.17C200.645 136.17 198.286 121.687 195.926 119.338C195.243 118.685 194.713 117.891 194.373 117.012C194.034 116.132 193.893 115.189 193.96 114.249H175.478Z" fill="#2F2E41"/>
<path d="M169.58 111.118C169.58 111.118 174.692 109.943 175.478 111.509C176.265 113.075 173.512 115.424 172.332 115.424C171.153 115.424 169.186 114.249 169.186 114.249L169.58 111.118Z" fill="#FFB9B9"/>
<path d="M187.678 77.3314C191.587 77.3314 194.756 74.1768 194.756 70.2854C194.756 66.394 191.587 63.2394 187.678 63.2394C183.769 63.2394 180.6 66.394 180.6 70.2854C180.6 74.1768 183.769 77.3314 187.678 77.3314Z" fill="#FFB9B9"/>
<path d="M183.401 75.113C183.401 75.113 182.556 81.368 181.77 81.368C180.983 81.368 187.668 84.891 187.668 84.891L192.78 84.1081L194.353 81.7594C194.353 81.7594 191.914 77.9878 191.914 74.8562C191.914 71.7247 183.401 75.113 183.401 75.113Z" fill="#FFB9B9"/>
<path d="M184.916 81.368C184.916 81.368 183.736 80.5851 183.343 80.5851H180.197C179.804 80.5851 174.692 81.7594 174.692 81.7594L171.546 99.3744C171.546 99.3744 177.051 108.378 173.119 115.424C173.119 115.424 174.298 114.641 179.804 115.032C185.309 115.424 195.14 116.598 195.533 116.598C195.926 116.598 195.926 113.466 195.533 112.684C195.14 111.901 195.926 112.292 195.926 110.335C195.926 108.378 197.106 104.855 197.106 104.855L202.611 84.891C202.611 84.891 195.533 80.9765 194.353 81.368C193.174 81.7594 189.635 82.9337 188.848 82.5423C188.062 82.1509 184.916 81.368 184.916 81.368Z" fill="#FF6584"/>
<path d="M175.871 82.1508L174.692 81.7594C174.692 81.7594 172.332 81.3679 169.58 83.7166C166.827 86.0653 156.603 93.1113 156.603 93.1113C156.603 93.1113 152.671 96.2428 153.85 99.7658C155.03 103.289 156.996 111.901 162.895 111.509C162.895 111.509 166.434 116.207 168.4 115.424C170.366 114.641 171.939 111.509 170.759 111.118C169.58 110.726 166.434 106.812 166.434 106.812L170.366 99.3744H171.546L175.871 97.0257L175.871 82.1508Z" fill="#FF6584"/>
<path d="M199.465 84.4995L202.611 84.891C202.611 84.891 205.364 86.0653 204.971 91.1541C204.577 96.2428 207.33 119.338 206.15 122.078C206.15 122.078 210.083 135.387 209.296 135.779C208.51 136.17 203.791 138.519 204.184 136.953C204.577 135.387 199.859 124.427 199.859 124.427C199.859 124.427 194.353 118.555 196.713 110.335V103.68L199.465 84.4995Z" fill="#FF6584"/>
<path d="M206.03 76.6121C205.153 75.377 204.073 74.2977 203.148 73.0984C201.013 70.333 200.275 66.6483 197.41 64.5277C194.576 62.4294 190.078 60.3641 186.531 60.5295C181.857 60.7476 178.148 64.3575 174.926 67.7354C172.463 70.3167 170.001 72.8981 167.538 75.4794C165.757 77.3468 163.91 79.3294 163.268 81.8241C162.651 84.2218 163.253 86.7976 164.383 89.0024C165.556 91.239 167.203 93.1958 169.209 94.7384C171.682 91.3487 175.147 86.6683 175.147 86.6683L175.953 98.3102C180.143 99.6924 184.643 99.9642 189.059 99.6586L190.366 94.8854L191.739 99.3943C197.015 98.698 202.315 96.8845 205.582 92.786C209.192 88.2548 209.384 81.3346 206.03 76.6121Z" fill="#2F2E41"/>
<path d="M176.567 75.4365C175.837 71.7893 176.626 68.0105 179.077 65.1167C183.605 59.7704 192.082 59.4701 198.01 64.4459C200.376 66.4093 202.074 69.0531 202.87 72.0148C202.189 68.7364 200.41 65.7853 197.825 63.6448C191.896 58.669 183.419 58.9693 178.891 64.3155C176.26 67.422 175.545 71.548 176.567 75.4365Z" fill="#2F2E41"/>
<path d="M162.637 92.641C161.908 88.9938 162.696 85.215 165.147 82.3212C169.675 76.9749 178.152 76.6746 184.081 81.6505C186.446 83.6138 188.144 86.2576 188.941 89.2193C188.26 85.9409 186.481 82.9899 183.895 80.8493C177.966 75.8735 169.489 76.1738 164.961 81.5201C162.33 84.6265 161.615 88.7525 162.637 92.641Z" fill="#2F2E41"/>
<path d="M194.229 73.4806C197.946 73.1164 201.647 74.2689 204.298 76.9814C209.198 81.9927 208.665 90.4197 203.108 95.8036C200.912 97.9541 198.102 99.3758 195.063 99.8738C198.408 99.5216 201.533 98.0494 203.927 95.6984C209.484 90.3144 210.017 81.8874 205.118 76.8762C202.271 73.9644 198.216 72.8501 194.229 73.4806Z" fill="#2F2E41"/>
<path opacity="0.1" d="M211.813 123.337C211.452 123.254 211.073 123.281 210.727 123.416C210.382 123.552 210.086 123.788 209.878 124.094C209.732 124.331 209.626 124.59 209.566 124.862C209.394 125.604 209.428 126.38 209.665 127.104C209.902 127.829 210.332 128.477 210.909 128.977C211.212 129.199 211.499 129.442 211.768 129.703C212.018 130.004 212.191 130.36 212.273 130.741C212.356 131.122 212.345 131.517 212.242 131.893C212.025 132.646 211.573 133.311 210.952 133.792C210.822 133.88 210.714 133.995 210.635 134.13C210.423 134.58 210.968 135.009 211.107 135.486" fill="white"/>
</g>
<defs>
<clipPath id="clip0">
<rect width="352" height="216" fill="white"/>
</clipPath>
</defs>
</svg>
